<!-- icon666.com - MILLIONS vector ICONS FREE --><svg id="Layer_1" enable-background="new 0 0 450 450" viewBox="0 0 450 450" xmlns="http://www.w3.org/2000/svg"><g><g><g><path d="m358.5 295h-46.5c-2.8 0-5-2.2-5-5s2.2-5 5-5h46.4c38.1 0 69.1-31 69.1-69.1s-31-69.1-69.1-69.1c-3.8 0-7.7.3-11.4.9-1.8.3-3.6-.4-4.8-1.9-1.1-1.4-1.4-3.4-.7-5.1 4.8-11.3 7.3-23.3 7.3-35.6 0-49.9-40.6-90.5-90.5-90.5-44.9 0-82.5 32.2-89.4 76.5-.2 1.4-1.1 2.7-2.3 3.5s-2.7 1-4.1.5c-6.6-2.1-13.5-3.1-20.5-3.1-32.2 0-60.6 22.8-67.5 54.1-.4 1.8-1.7 3.1-3.4 3.7-28.9 9.1-48.3 35.6-48.3 65.9 0 38.1 31 69.1 69.1 69.1h46.4c2.8 0 5 2.2 5 5s-2.2 5-5 5h-46.2c-43.6 0-79.1-35.5-79.1-79.1 0-33.8 21-63.4 52.6-74.6 4.2-16.2 13.6-30.9 26.7-41.5 14-11.4 31.8-17.7 49.9-17.7 6.1 0 12.2.7 18.1 2.1 4.5-21.3 16-40.7 32.6-55 18.1-15.6 41.4-24.3 65.5-24.3 55.4 0 100.5 45.1 100.5 100.5 0 10.9-1.7 21.5-5.1 31.7 1.6-.1 3.1-.1 4.7-.1 43.6 0 79.1 35.5 79.1 79.1s-35.5 79.1-79.1 79.1z"></path></g><g><path d="m296.7 391.1h-142.9c-11.2 0-20.4-9.1-20.4-20.4v-142.8c0-11.2 9.1-20.4 20.4-20.4h142.9c11.2 0 20.3 9.1 20.3 20.4v142.9c0 11.2-9.1 20.3-20.3 20.3zm-142.9-173.6c-5.7 0-10.4 4.6-10.4 10.4v142.9c0 5.7 4.6 10.4 10.4 10.4h142.9c5.7 0 10.3-4.6 10.3-10.4v-142.9c0-5.7-4.6-10.4-10.3-10.4z"></path></g><g><path d="m254.5 345.1h-58.5c-9.1 0-16.5-7.4-16.5-16.5v-58.5c0-9.1 7.4-16.5 16.5-16.5h58.5c9.1 0 16.5 7.4 16.5 16.5v58.5c0 9.1-7.4 16.5-16.5 16.5zm-58.5-81.5c-3.6 0-6.5 2.9-6.5 6.5v58.5c0 3.6 2.9 6.5 6.5 6.5h58.5c3.6 0 6.5-2.9 6.5-6.5v-58.5c0-3.6-2.9-6.5-6.5-6.5z"></path></g><g><path d="m138.5 256.4h-29.6c-2.8 0-5-2.2-5-5s2.2-5 5-5h29.6c2.8 0 5 2.2 5 5s-2.3 5-5 5z"></path></g><g><path d="m359.2 256.4h-47.2c-2.8 0-5-2.2-5-5s2.2-5 5-5h47.2c2.8 0 5 2.2 5 5s-2.2 5-5 5z"></path></g><g><path d="m335.7 256.4c-.8 0-1.7-.2-2.4-.6-2.4-1.3-3.3-4.4-1.9-6.8l21.1-37.9c.9-1.6 2.5-2.6 4.4-2.6h25.7c2.8 0 5 2.2 5 5s-2.2 5-5 5h-22.7l-19.7 35.3c-1 1.6-2.7 2.6-4.5 2.6z"></path></g><g><g><path d="m209.2 217.5c-2.8 0-5-2.2-5-5v-36.2h-73c-2.8 0-5-2.2-5-5s2.2-5 5-5h78c2.8 0 5 2.2 5 5v41.2c0 2.8-2.2 5-5 5z"></path></g><g><path d="m260 217.5c-2.8 0-5-2.2-5-5v-59c0-2.8 2.2-5 5-5h43.8c2.8 0 5 2.2 5 5s-2.2 5-5 5h-38.8v54c0 2.8-2.2 5-5 5z"></path></g></g><g><path d="m232.6 217.5c-2.8 0-5-2.2-5-5v-67.9c0-2.8 2.2-5 5-5s5 2.2 5 5v67.9c0 2.8-2.2 5-5 5z"></path></g><g><path d="m95.7 269.6c-10 0-18.2-8.2-18.2-18.2s8.2-18.2 18.2-18.2 18.2 8.2 18.2 18.2-8.1 18.2-18.2 18.2zm0-26.4c-4.5 0-8.2 3.7-8.2 8.2s3.7 8.2 8.2 8.2 8.2-3.7 8.2-8.2-3.7-8.2-8.2-8.2z"></path></g><g><path d="m118 189.5c-10 0-18.2-8.2-18.2-18.2s8.2-18.2 18.2-18.2 18.2 8.2 18.2 18.2-8.1 18.2-18.2 18.2zm0-26.4c-4.5 0-8.2 3.7-8.2 8.2s3.7 8.2 8.2 8.2 8.2-3.7 8.2-8.2-3.7-8.2-8.2-8.2z"></path></g><g><path d="m317 171.7c-10 0-18.2-8.2-18.2-18.2s8.2-18.2 18.2-18.2 18.2 8.2 18.2 18.2-8.2 18.2-18.2 18.2zm0-26.3c-4.5 0-8.2 3.7-8.2 8.2s3.7 8.2 8.2 8.2 8.2-3.7 8.2-8.2-3.7-8.2-8.2-8.2z"></path></g><g><path d="m232.6 149.7c-10 0-18.2-8.2-18.2-18.2s8.2-18.2 18.2-18.2 18.2 8.2 18.2 18.2-8.1 18.2-18.2 18.2zm0-26.4c-4.5 0-8.2 3.7-8.2 8.2s3.7 8.2 8.2 8.2 8.2-3.7 8.2-8.2-3.7-8.2-8.2-8.2z"></path></g><g><path d="m395.7 231.7c-10 0-18.2-8.2-18.2-18.2s8.2-18.2 18.2-18.2 18.2 8.2 18.2 18.2-8.2 18.2-18.2 18.2zm0-26.4c-4.5 0-8.2 3.7-8.2 8.2s3.7 8.2 8.2 8.2 8.2-3.7 8.2-8.2-3.7-8.2-8.2-8.2z"></path></g><g><path d="m372.4 269.6c-10 0-18.2-8.2-18.2-18.2s8.2-18.2 18.2-18.2 18.2 8.2 18.2 18.2-8.2 18.2-18.2 18.2zm0-26.4c-4.5 0-8.2 3.7-8.2 8.2s3.7 8.2 8.2 8.2 8.2-3.7 8.2-8.2-3.7-8.2-8.2-8.2z"></path></g></g><g><path d="m190.1 427.6c-2.8 0-5-2.2-5-5v-36.4c0-2.8 2.2-5 5-5s5 2.2 5 5v36.4c0 2.7-2.3 5-5 5z"></path></g><g><path d="m154.9 446.7h-124.7c-2.8 0-5-2.2-5-5s2.2-5 5-5h119.7v-50.6c0-2.8 2.2-5 5-5s5 2.2 5 5v55.6c0 2.8-2.3 5-5 5z"></path></g><g><path d="m225.3 446.7c-2.8 0-5-2.2-5-5v-55.6c0-2.8 2.2-5 5-5s5 2.2 5 5v55.6c0 2.8-2.3 5-5 5z"></path></g><g><path d="m260.5 427.6c-2.8 0-5-2.2-5-5v-36.4c0-2.8 2.2-5 5-5s5 2.2 5 5v36.4c0 2.7-2.3 5-5 5z"></path></g><g><path d="m421.4 446.7h-124.7c-2.8 0-5-2.2-5-5v-55.6c0-2.8 2.2-5 5-5s5 2.2 5 5v50.6h119.7c2.8 0 5 2.2 5 5s-2.3 5-5 5z"></path></g></g></svg>      