<!-- icon666.com - MILLIONS vector ICONS FREE --><svg id="Capa_1" enable-background="new 0 0 512 512" viewBox="0 0 512 512" xmlns="http://www.w3.org/2000/svg"><g><g><path d="m502 52h-40c-5.522 0-10 4.478-10 10v59.72c-3.13-1.11-6.494-1.72-10-1.72h-42.557c-16.542 0-30 13.458-30 30v10h-163.731v-98c0-5.522-4.478-10-10-10h-40c-5.522 0-10 4.478-10 10v58h-85.712v-58c0-5.522-4.478-10-10-10h-40c-5.522 0-10 4.478-10 10v388c0 5.522 4.478 10 10 10h492c5.522 0 10-4.478 10-10v-388c0-5.522-4.478-10-10-10zm-462 388h-20v-368h20zm105.712 0h-85.712v-20h85.712zm0-40h-85.712v-20h85.712zm0-40h-85.712v-20h85.712zm0-40h-85.712v-20h85.712zm0-40h-85.712v-20h85.712zm0-40h-85.712v-20h85.712zm0-40h-85.712v-20h85.712zm0-40h-85.712v-20h85.712zm40 280h-20v-368h20zm266.288 0h-246.288v-60h246.288zm0-80h-62.557v-10c0-5.514 4.486-10 10-10h42.557c5.514 0 10 4.486 10 10zm0-120h-78.144c-5.522 0-10 4.478-10 10s4.478 10 10 10h78.144v61.72c-3.13-1.11-6.494-1.72-10-1.72h-42.557c-16.542 0-30 13.458-30 30v10h-163.731v-100h78.145c5.522 0 10-4.478 10-10s-4.478-10-10-10h-78.145v-60h246.288zm0-80h-62.557v-10c0-5.514 4.486-10 10-10h42.557c5.514 0 10 4.486 10 10zm40 280h-20v-368h20z"></path><circle cx="328.859" cy="250.004" r="10"></circle></g></g></svg>